<svg width="150" height="100" viewBox="0 0 248.859 69.7231" fill="none" xmlns="http://www.w3.org/2000/svg"
>
    <desc>
        Created with Pixso.
    </desc>
    <defs/>
    <path id="path"
          d="M51.79 24.93C51.1 29.14 48.35 32.56 44.68 34.42C41.78 31.58 40.27 27.53 40.96 23.31C41.65 19.1 44.39 15.68 48.07 13.82C50.97 16.66 52.48 20.71 51.79 24.93Z"
          fill="#C83316" fill-opacity="1.000000" fill-rule="nonzero"/>
    <g opacity="0.200000" style="mix-blend-mode:multiply">
        <path id="path"
              d="M51.79 24.93C52.02 23.5 52 22.09 51.76 20.74C50.49 21.39 49.3 22.22 48.26 23.27C45.17 26.36 43.99 30.52 44.68 34.42C48.35 32.57 51.09 29.14 51.79 24.93Z"
              fill="#370D32" fill-opacity="1.000000" fill-rule="nonzero"/>
    </g>
    <path id="path"
          d="M58.8 33.3C54.37 35.87 49.15 36.12 44.68 34.42C45.15 29.86 47.77 25.55 52.2 22.98C56.63 20.42 61.85 20.16 66.32 21.87C65.86 26.43 63.23 30.73 58.8 33.3Z"
          fill="#F84616" fill-opacity="1.000000" fill-rule="nonzero"/>
    <path id="path"
          d="M57.38 19.65C56.22 20.33 54.85 20.4 53.67 19.95C53.79 18.75 54.48 17.62 55.65 16.94C56.81 16.26 58.18 16.2 59.36 16.65C59.24 17.85 58.55 18.98 57.38 19.65Z"
          fill="#F84616" fill-opacity="1.000000" fill-rule="nonzero"/>
    <path id="path"
          d="M60.63 37.94C59.27 38.05 58.01 37.52 57.17 36.62C57.85 35.6 58.99 34.88 60.35 34.77C61.71 34.66 62.97 35.19 63.81 36.09C63.14 37.11 61.99 37.83 60.63 37.94Z"
          fill="#F84616" fill-opacity="1.000000" fill-rule="nonzero"/>
    <path id="path"
          d="M56.27 12.93C55.88 14.6 54.69 15.9 53.18 16.56C52.09 15.36 51.59 13.7 51.98 12.03C52.36 10.36 53.55 9.06 55.07 8.4C56.15 9.6 56.65 11.26 56.27 12.93Z"
          fill="#F84616" fill-opacity="1.000000" fill-rule="nonzero"/>
    <path id="path"
          d="M47.44 47.2C43.02 47.87 38.75 46.45 35.76 43.69C37.7 40.19 41.28 37.56 45.7 36.89C50.12 36.21 54.39 37.64 57.37 40.39C55.44 43.89 51.86 46.52 47.44 47.2Z"
          fill="#FA811D" fill-opacity="1.000000" fill-rule="nonzero"/>
    <g opacity="0.200000" style="mix-blend-mode:multiply">
        <path id="path"
              d="M47.44 47.2C48.93 46.97 50.33 46.51 51.6 45.88C50.57 44.93 49.37 44.11 48 43.48C43.96 41.64 39.45 41.86 35.76 43.69C38.75 46.45 43.02 47.87 47.44 47.2Z"
              fill="#370D32" fill-opacity="1.000000" fill-rule="nonzero"/>
    </g>
    <path id="path"
          d="M41.24 56.14C37.31 52.92 35.44 48.27 35.76 43.69C40.46 42.7 45.58 43.76 49.51 46.97C53.44 50.19 55.31 54.84 54.98 59.41C50.29 60.41 45.17 59.35 41.24 56.14Z"
          fill="#FAD01D" fill-opacity="1.000000" fill-rule="nonzero"/>
    <path id="path"
          d="M54.43 50.64C53.39 49.79 52.9 48.57 52.99 47.37C54.22 47.11 55.57 47.38 56.6 48.23C57.63 49.07 58.13 50.3 58.04 51.5C56.81 51.76 55.46 51.48 54.43 50.64Z"
          fill="#FAD01D" fill-opacity="1.000000" fill-rule="nonzero"/>
    <path id="path"
          d="M37.18 59.23C36.65 58.03 36.79 56.73 37.43 55.69C38.65 55.98 39.73 56.8 40.25 58C40.78 59.2 40.64 60.5 40 61.54C38.78 61.25 37.7 60.43 37.18 59.23Z"
          fill="#FAD01D" fill-opacity="1.000000" fill-rule="nonzero"/>
    <path id="path"
          d="M60.8 47.55C59.01 47.72 57.35 47.04 56.23 45.87C57.09 44.52 58.59 43.55 60.38 43.39C62.16 43.23 63.83 43.9 64.95 45.07C64.09 46.43 62.58 47.39 60.8 47.55Z"
          fill="#FAD01D" fill-opacity="1.000000" fill-rule="nonzero"/>
    <path id="path"
          d="M23.86 50.14C21.82 46.34 21.93 42.03 23.75 38.48C27.85 39.15 31.58 41.58 33.62 45.38C35.66 49.17 35.55 53.48 33.73 57.04C29.63 56.37 25.9 53.93 23.86 50.14Z"
          fill="#008560" fill-opacity="1.000000" fill-rule="nonzero"/>
    <g opacity="0.200000" style="mix-blend-mode:multiply">
        <path id="path"
              d="M23.86 50.14C24.55 51.42 25.44 52.55 26.47 53.5C27.1 52.27 27.54 50.93 27.74 49.5C28.33 45.27 26.72 41.25 23.75 38.47C21.93 42.03 21.82 46.34 23.86 50.14Z"
              fill="#370D32" fill-opacity="1.000000" fill-rule="nonzero"/>
    </g>
    <path id="path"
          d="M13.02 47.29C15.02 42.73 19.09 39.6 23.75 38.48C26.2 42.43 26.72 47.38 24.73 51.94C22.73 56.5 18.66 59.63 13.99 60.75C11.55 56.8 11.02 51.85 13.02 47.29Z"
          fill="#05B178" fill-opacity="1.000000" fill-rule="nonzero"/>
    <path id="path"
          d="M22.59 57.54C23.11 56.34 24.18 55.51 25.41 55.22C26.05 56.26 26.19 57.56 25.66 58.76C25.14 59.96 24.07 60.78 22.84 61.08C22.2 60.04 22.06 58.73 22.59 57.54Z"
          fill="#05B178" fill-opacity="1.000000" fill-rule="nonzero"/>
    <path id="path"
          d="M8.68 44.56C9.71 43.72 11.05 43.44 12.29 43.69C12.38 44.9 11.89 46.12 10.86 46.97C9.83 47.81 8.48 48.1 7.25 47.84C7.16 46.63 7.65 45.41 8.68 44.56Z"
          fill="#05B178" fill-opacity="1.000000" fill-rule="nonzero"/>
    <path id="path"
          d="M27.64 62.35C26.92 60.79 27.08 59.07 27.9 57.69C29.52 58.05 30.95 59.11 31.66 60.68C32.38 62.25 32.22 63.97 31.4 65.35C29.78 64.98 28.35 63.92 27.64 62.35Z"
          fill="#05B178" fill-opacity="1.000000" fill-rule="nonzero"/>
    <path id="path"
          d="M13.64 29.69C16.8 26.67 21.13 25.43 25.25 25.99C25.84 29.91 24.56 34.03 21.4 37.06C18.24 40.08 13.91 41.31 9.8 40.76C9.2 36.84 10.48 32.71 13.64 29.69Z"
          fill="#8B41D3" fill-opacity="1.000000" fill-rule="nonzero"/>
    <g opacity="0.200000" style="mix-blend-mode:multiply">
        <path id="path"
              d="M13.64 29.69C12.57 30.71 11.72 31.87 11.08 33.09C12.51 33.28 13.99 33.27 15.48 33.01C19.88 32.23 23.4 29.53 25.25 25.99C21.13 25.43 16.8 26.67 13.64 29.69Z"
              fill="#370D32" fill-opacity="1.000000" fill-rule="nonzero"/>
    </g>
    <path id="path"
          d="M13.13 18.99C18.3 19.39 22.68 22.11 25.25 25.99C22.06 29.42 17.27 31.43 12.11 31.03C6.94 30.63 2.56 27.91 7.62e-6 24.03C3.18 20.6 7.97 18.59 13.13 18.99Z"
          fill="#D05AF1" fill-opacity="1.000000" fill-rule="nonzero"/>
    <path id="path"
          d="M5.86 30.82C7.22 30.92 8.37 31.64 9.04 32.66C8.2 33.56 6.95 34.09 5.59 33.98C4.23 33.88 3.08 33.16 2.41 32.14C3.25 31.24 4.5 30.71 5.86 30.82Z"
          fill="#D05AF1" fill-opacity="1.000000" fill-rule="nonzero"/>
    <path id="path"
          d="M14.51 14.21C15.68 14.88 16.37 16.01 16.5 17.21C15.33 17.66 13.95 17.6 12.78 16.93C11.62 16.25 10.93 15.12 10.8 13.92C11.97 13.47 13.35 13.54 14.51 14.21Z"
          fill="#D05AF1" fill-opacity="1.000000" fill-rule="nonzero"/>
    <path id="path"
          d="M2.61 36.88C3.96 35.75 5.72 35.36 7.35 35.68C7.48 37.26 6.86 38.88 5.52 40.01C4.18 41.15 2.41 41.54 0.79 41.22C0.65 39.63 1.27 38.01 2.61 36.88Z"
          fill="#D05AF1" fill-opacity="1.000000" fill-rule="nonzero"/>
    <path id="path"
          d="M30.9 14.11C34.89 16.04 37.46 19.58 38.18 23.48C34.45 25.23 29.94 25.35 25.94 23.42C21.95 21.49 19.38 17.95 18.66 14.05C22.39 12.3 26.91 12.18 30.9 14.11Z"
          fill="#027DFF" fill-opacity="1.000000" fill-rule="nonzero"/>
    <g opacity="0.200000" style="mix-blend-mode:multiply">
        <path id="path"
              d="M30.9 14.11C29.55 13.45 28.14 13.04 26.71 12.84C26.96 14.19 27.43 15.52 28.15 16.79C30.28 20.54 34.07 22.89 38.18 23.47C37.46 19.57 34.89 16.04 30.9 14.11Z"
              fill="#370D32" fill-opacity="1.000000" fill-rule="nonzero"/>
    </g>
    <path id="path"
          d="M41.43 10.34C42.63 15.15 41.26 19.96 38.18 23.48C33.77 21.65 30.28 17.93 29.09 13.13C27.89 8.32 29.26 3.52 32.33 3.81e-6C36.75 1.82 40.24 5.54 41.43 10.34Z"
          fill="#02A8FF" fill-opacity="1.000000" fill-rule="nonzero"/>
    <path id="path"
          d="M27.36 7.4C27.68 8.67 27.32 9.93 26.51 10.86C25.35 10.38 24.43 9.4 24.12 8.14C23.81 6.87 24.17 5.61 24.97 4.68C26.13 5.16 27.05 6.14 27.36 7.4Z"
          fill="#02A8FF" fill-opacity="1.000000" fill-rule="nonzero"/>
    <path id="path"
          d="M46.62 10.11C46.31 11.38 45.4 12.36 44.24 12.84C43.42 11.92 43.06 10.65 43.38 9.39C43.69 8.12 44.6 7.15 45.76 6.66C46.57 7.59 46.93 8.85 46.62 10.11Z"
          fill="#02A8FF" fill-opacity="1.000000" fill-rule="nonzero"/>
    <path id="path"
          d="M20.31 6.34C21.85 7.2 22.79 8.68 22.97 10.26C21.44 10.87 19.63 10.81 18.08 9.94C16.53 9.07 15.6 7.6 15.41 6.02C16.95 5.41 18.76 5.47 20.31 6.34Z"
          fill="#02A8FF" fill-opacity="1.000000" fill-rule="nonzero"/>
    <path id="Event"
          d="M96.24 14.09L97.71 8.94L81.55 8.94L78.06 34L94.04 34L94.76 28.81L86.05 28.81L86.77 23.77L93.9 23.77L94.55 18.76L87.45 18.76L88.1 14.09L96.24 14.09ZM172.99 28.67Q171.95 29.13 171.16 29.13Q170.66 29.13 170.38 28.89Q170.33 28.85 170.3 28.81Q170.01 28.48 170.01 27.73Q170.01 27.52 170.08 26.87L171.09 19.6L174.62 19.6L176.05 14.77L171.74 14.77L172.42 9.91L166.23 10.63L165.08 14.77L162.48 14.77L161.83 19.6L164.1 19.6L163.06 26.87Q162.91 28.16 162.91 28.67Q162.91 31.51 164.33 33.05Q164.38 33.11 164.44 33.17Q164.54 33.27 164.64 33.36Q166.15 34.72 168.89 34.72Q170.26 34.72 171.88 34.32Q173.5 33.92 174.73 33.2L172.99 28.67ZM136.58 22.35Q137.24 21.14 137.24 19.56Q137.24 18.46 136.83 17.54Q136.32 16.42 135.2 15.58Q133.17 14.05 129.54 14.05Q125.54 14.05 122.97 15.94Q121.36 17.12 120.3 18.68Q119.66 19.61 119.22 20.68Q118.16 23.26 118.06 25.87Q118.05 26.13 118.05 26.4Q118.05 29.43 119.48 31.48Q119.84 32 120.3 32.47Q120.32 32.48 120.34 32.5Q122.59 34.72 127.02 34.72Q128.51 34.72 129.93 34.4Q132.66 33.78 135.12 31.98L132.71 27.91Q131.26 28.81 130.18 29.24Q129.62 29.47 129.04 29.57Q128.51 29.67 127.96 29.67Q126.56 29.67 125.83 28.97Q125.16 28.34 125.04 27.12Q130.23 26.65 133.73 24.92Q135.72 23.94 136.58 22.35ZM157.1 14.8Q156.08 14.05 154.51 14.05Q154.2 14.05 153.89 14.08Q152.38 14.23 150.94 15.12Q150.46 15.41 150.02 15.76Q148.89 16.67 148.07 17.94L148.03 14.77L141.94 14.77L139.28 34L146.26 34L147.71 23.98Q148.67 21.9 149.43 20.87Q150.18 19.84 150.83 19.84Q151.02 19.84 151.15 19.93Q151.48 20.14 151.48 20.89Q151.48 21.08 151.41 21.72L149.68 34L156.67 34L158.65 19.84Q158.72 19.41 158.72 18.59Q158.72 16.51 157.69 15.34Q157.65 15.29 157.6 15.24Q157.37 14.99 157.1 14.8ZM109.76 34L117.93 14.77L110.65 14.77L106.3 28.84L105.76 14.77L98.27 14.77L101.36 34L109.76 34ZM129.22 21.94Q128.17 22.95 125.33 23.12Q125.73 21.11 126.59 19.84Q127.11 19.06 127.83 18.75Q128.3 18.55 128.86 18.55Q129.6 18.55 129.95 18.92Q130.26 19.25 130.26 19.88Q130.26 19.91 130.26 19.95Q130.23 20.96 129.22 21.94Z"
          fill="#F84616" fill-opacity="1.000000" fill-rule="evenodd"/>
    <path id="Booking Center"
          d="M127.06 47.19Q127.54 47.52 128.25 47.52Q128.87 47.52 129.38 47.27Q129.71 47.11 129.99 46.84Q130.31 46.54 130.48 46.17Q130.7 45.71 130.7 45.13Q130.7 44.59 130.47 44.18Q130.35 43.97 130.17 43.8Q130.05 43.68 129.92 43.59Q129.45 43.27 128.76 43.27Q128.15 43.27 127.65 43.51Q127.3 43.68 127.01 43.96Q126.7 44.25 126.53 44.61Q126.3 45.08 126.3 45.66Q126.3 46.2 126.54 46.62Q126.65 46.83 126.83 47Q126.94 47.11 127.06 47.19ZM119.8 49.14Q118.96 49.5 118.16 50.3L118.96 44.58L115.02 44.98L112.94 59.86L116.84 59.86L117.76 53.12Q118.94 51.44 119.98 51.44Q120.38 51.44 120.57 51.64Q120.74 51.82 120.74 52.16Q120.74 52.33 120.71 52.49Q120.6 53.06 120.11 53.56Q119.48 54.2 117.92 54.73L119.48 59.86L123.72 59.86L122 55.1Q123.73 54.29 124.34 52.97Q124.66 52.26 124.66 51.39Q124.66 50.66 124.35 50.11Q124.16 49.77 123.85 49.5Q123.83 49.48 123.8 49.46Q123 48.78 121.62 48.78Q120.72 48.78 119.93 49.09Q119.87 49.11 119.8 49.14ZM168.27 46.56Q166.88 45.54 164.74 45.54Q162.51 45.54 160.96 46.56Q160.74 46.71 160.52 46.89Q159.8 47.47 159.25 48.18Q158.53 49.12 158.1 50.28Q157.61 51.59 157.43 52.95Q157.34 53.7 157.34 54.46Q157.34 56.32 158.03 57.62Q158.46 58.43 159.11 59Q159.5 59.34 159.96 59.59Q161.2 60.26 162.86 60.26Q164.32 60.26 165.55 59.73Q166.65 59.25 167.53 58.52Q167.64 58.43 167.74 58.34L166.22 55.99Q165.46 56.56 164.85 56.86Q164.5 57.03 164.13 57.1Q163.86 57.16 163.58 57.16Q162.85 57.16 162.38 56.81Q161.52 56.17 161.52 54.38Q161.52 53.16 161.83 51.8Q162.14 50.44 162.87 49.47Q163.26 48.94 163.78 48.7Q164.23 48.49 164.78 48.49Q165.42 48.49 165.94 48.73Q166.46 48.96 166.96 49.4L169.1 47.34Q168.73 46.89 168.27 46.56ZM88.84 53.4Q88.1 52.74 86.86 52.5Q88.16 52.16 89.02 51.36Q89.23 51.16 89.38 50.94Q89.88 50.22 89.88 49.16Q89.88 48.21 89.44 47.56Q89.07 47.01 88.39 46.68Q86.9 45.94 84.08 45.94L79.86 45.94L77.92 59.86L82.72 59.86Q86.36 59.86 87.97 58.65Q88.8 58.03 89.2 57.2Q89.58 56.41 89.58 55.44Q89.58 54.15 88.94 53.49Q88.89 53.44 88.84 53.4ZM196.4 56.9Q195.82 57.16 195.38 57.16Q195.1 57.16 194.95 57.02Q194.92 57 194.9 56.98Q194.74 56.8 194.74 56.38Q194.74 56.26 194.78 55.9L195.34 51.86L197.3 51.86L198.1 49.18L195.7 49.18L196.08 46.48L192.64 46.88L192 49.18L190.56 49.18L190.2 51.86L191.46 51.86L190.88 55.9Q190.8 56.61 190.8 56.9Q190.8 58.48 191.59 59.33Q191.62 59.37 191.65 59.4Q191.7 59.45 191.76 59.5Q192.6 60.26 194.12 60.26Q194.88 60.26 195.78 60.04Q196.68 59.82 197.36 59.42L196.4 56.9ZM85.33 50.85Q84.96 51.32 83.82 51.32L83.12 51.32L83.48 48.76L84.1 48.76Q84.96 48.76 85.33 48.98Q85.48 49.06 85.57 49.19Q85.7 49.39 85.7 49.68Q85.7 50.26 85.44 50.68Q85.39 50.77 85.33 50.85ZM91.82 59.32Q93.01 60.26 94.94 60.26Q97.16 60.26 98.55 59.24Q99.39 58.62 99.94 57.82Q100.31 57.28 100.55 56.66Q100.7 56.28 100.81 55.89Q101.16 54.67 101.16 53.36Q101.16 51.66 100.36 50.53Q100.16 50.25 99.91 50.01Q99.75 49.84 99.56 49.7Q98.37 48.78 96.46 48.78Q94.26 48.78 92.87 49.78Q92.1 50.33 91.57 51.06Q91.14 51.64 90.87 52.34Q90.74 52.66 90.65 52.98Q90.26 54.25 90.26 55.64Q90.26 57.49 91.15 58.65Q91.31 58.85 91.5 59.04Q91.65 59.19 91.82 59.32ZM103.26 59.32Q104.45 60.26 106.38 60.26Q108.6 60.26 109.99 59.24Q110.83 58.62 111.38 57.82Q111.75 57.28 111.99 56.66Q112.14 56.28 112.25 55.89Q112.6 54.67 112.6 53.36Q112.6 51.66 111.8 50.53Q111.6 50.25 111.35 50.01Q111.19 49.84 111 49.7Q109.81 48.78 107.9 48.78Q105.7 48.78 104.31 49.78Q103.54 50.33 103.01 51.06Q102.58 51.64 102.31 52.34Q102.19 52.66 102.09 52.98Q101.7 54.25 101.7 55.64Q101.7 57.49 102.59 58.65Q102.75 58.85 102.94 59.04Q103.09 59.19 103.26 59.32ZM139.96 49.19Q139.39 48.78 138.52 48.78Q138.35 48.78 138.18 48.79Q137.34 48.88 136.54 49.37Q136.27 49.53 136.03 49.73Q135.4 50.23 134.94 50.94L134.92 49.18L131.54 49.18L130.06 59.86L133.94 59.86L134.74 54.3Q135.28 53.14 135.7 52.57Q136.12 52 136.48 52Q136.58 52 136.65 52.04Q136.84 52.16 136.84 52.58Q136.84 52.68 136.8 53.04L135.84 59.86L139.72 59.86L140.82 52Q140.86 51.76 140.86 51.3Q140.86 50.14 140.29 49.49Q140.27 49.46 140.24 49.44Q140.11 49.3 139.96 49.19ZM150.3 49.09Q149.06 48.78 147.88 48.78Q145.64 48.78 144.18 49.84L144.18 49.85Q143.14 50.61 142.52 51.62Q142.26 52.03 142.07 52.49Q141.46 53.97 141.42 55.46Q141.42 55.55 141.42 55.64Q141.42 57.56 142.33 58.71Q142.6 59.05 142.94 59.29Q143.75 59.86 144.96 59.86Q145.6 59.86 146.17 59.65Q147 59.34 147.66 58.6L147.52 59.44Q147.34 60.64 146.77 61.07Q146.2 61.5 145.3 61.5Q143.96 61.5 142.38 60.66L141.12 63.14Q142.04 63.72 143.18 64.06Q144.32 64.4 145.32 64.4Q147.26 64.4 148.49 63.8Q148.99 63.56 149.39 63.21Q150 62.7 150.41 61.96Q151.1 60.72 151.38 58.69L152.6 50.04Q152.45 49.94 152.29 49.86Q151.36 49.35 150.3 49.09ZM178.39 53.39Q178.76 52.71 178.76 51.84Q178.76 51.22 178.53 50.71Q178.25 50.09 177.63 49.63Q176.5 48.78 174.48 48.78Q172.26 48.78 170.83 49.83Q169.94 50.48 169.35 51.35Q168.99 51.87 168.75 52.46Q168.16 53.89 168.11 55.34Q168.1 55.49 168.1 55.64Q168.1 57.32 168.89 58.46Q169.09 58.75 169.35 59.01Q169.36 59.02 169.37 59.03Q170.62 60.26 173.08 60.26Q173.91 60.26 174.7 60.08Q176.21 59.74 177.58 58.74L176.24 56.48Q175.44 56.98 174.84 57.21Q174.53 57.34 174.2 57.4Q173.91 57.45 173.6 57.45Q172.83 57.45 172.42 57.07Q172.05 56.71 171.98 56.04Q174.86 55.77 176.81 54.82Q177.92 54.27 178.39 53.39ZM188.68 49.19Q188.11 48.78 187.24 48.78Q187.07 48.78 186.9 48.79Q186.06 48.88 185.26 49.37Q184.99 49.53 184.75 49.73Q184.12 50.23 183.66 50.94L183.64 49.18L180.26 49.18L178.78 59.86L182.66 59.86L183.46 54.3Q184 53.14 184.42 52.57Q184.84 52 185.2 52Q185.3 52 185.37 52.04Q185.56 52.16 185.56 52.58Q185.56 52.68 185.52 53.04L184.56 59.86L188.44 59.86L189.54 52Q189.58 51.76 189.58 51.3Q189.58 50.14 189.01 49.49Q188.99 49.46 188.96 49.44Q188.83 49.3 188.68 49.19ZM207.81 53.39Q208.18 52.71 208.18 51.84Q208.18 51.22 207.95 50.71Q207.67 50.09 207.05 49.63Q205.92 48.78 203.9 48.78Q201.68 48.78 200.25 49.83Q199.36 50.48 198.77 51.35Q198.41 51.87 198.17 52.46Q197.58 53.89 197.53 55.34Q197.52 55.49 197.52 55.64Q197.52 57.32 198.31 58.46Q198.51 58.75 198.77 59.01Q198.78 59.02 198.79 59.03Q200.04 60.26 202.5 60.26Q203.33 60.26 204.12 60.08Q205.63 59.74 207 58.74L205.66 56.48Q204.86 56.98 204.26 57.21Q203.95 57.34 203.62 57.4Q203.33 57.45 203.02 57.45Q202.25 57.45 201.84 57.07Q201.47 56.71 201.4 56.04Q204.28 55.77 206.23 54.82Q207.34 54.27 207.81 53.39ZM217.07 49.01Q216.59 48.84 216.04 48.84Q215.82 48.84 215.61 48.87Q214.97 48.98 214.38 49.42Q213.6 50 213.08 51.08L213.06 49.18L209.68 49.18L208.2 59.86L212.08 59.86L212.72 55.35Q213.16 54.08 213.68 53.38Q213.93 53.03 214.28 52.86Q214.63 52.68 215.08 52.68Q215.46 52.68 216 52.84L217.1 49.02Q217.09 49.01 217.07 49.01ZM128.42 59.86L129.9 49.18L126.02 49.18L124.54 59.86L128.42 59.86ZM174.3 53.16Q173.72 53.72 172.14 53.82Q172.36 52.7 172.84 51.99Q173.13 51.56 173.53 51.39Q173.79 51.28 174.1 51.28Q174.51 51.28 174.71 51.48Q174.88 51.67 174.88 52.01Q174.88 52.03 174.88 52.05Q174.86 52.61 174.3 53.16ZM203.72 53.16Q203.14 53.72 201.56 53.82Q201.78 52.7 202.26 51.99Q202.55 51.56 202.95 51.39Q203.21 51.28 203.52 51.28Q203.93 51.28 204.13 51.48Q204.3 51.67 204.3 52.01Q204.3 52.03 204.3 52.05Q204.28 52.61 203.72 53.16ZM146.96 51.67Q147.31 51.5 147.74 51.5Q148.1 51.5 148.56 51.61L147.92 55.82Q147.16 56.94 146.37 56.97Q146.34 56.98 146.32 56.98Q146.06 56.98 145.88 56.86Q145.4 56.56 145.4 55.5Q145.4 54.64 145.63 53.72Q145.86 52.8 146.38 52.15Q146.63 51.83 146.96 51.67ZM95.97 57.25Q95.66 57.42 95.26 57.42Q94.88 57.42 94.64 57.23Q94.54 57.16 94.47 57.05Q94.22 56.68 94.22 55.84Q94.22 54.28 94.62 52.95Q94.88 52.08 95.44 51.78Q95.75 51.61 96.14 51.61Q96.55 51.61 96.79 51.81Q96.88 51.88 96.94 51.97Q97.2 52.32 97.2 53.1Q97.2 54.68 96.8 56.05Q96.54 56.94 95.97 57.25ZM107.41 57.25Q107.1 57.42 106.7 57.42Q106.32 57.42 106.08 57.23Q105.98 57.16 105.91 57.05Q105.66 56.68 105.66 55.84Q105.66 54.28 106.06 52.95Q106.32 52.08 106.88 51.78Q107.19 51.61 107.58 51.61Q107.99 51.61 108.23 51.81Q108.32 51.88 108.38 51.97Q108.64 52.32 108.64 53.1Q108.64 54.68 108.24 56.05Q107.98 56.94 107.41 57.25ZM84.95 56.47Q84.46 56.96 83.12 56.96L82.34 56.96L82.76 53.91L83.74 53.91Q84.9 53.91 85.27 54.45Q85.44 54.71 85.44 55.08Q85.44 55.88 85.05 56.36Q85 56.42 84.95 56.47Z"
          fill="#F84616" fill-opacity="1.000000" fill-rule="evenodd"/>
</svg>
