<?xml version="1.0" encoding="UTF-8"?>
<svg xmlns="http://www.w3.org/2000/svg" width="150" height="100" viewBox="50 73 520 320">
  <defs>
    <style>
      .cls-1, .cls-2 {
        fill: #fa811d;
      }

      .cls-3 {
        fill: #fad01d;
      }

      .cls-4 {
        fill: #027dff;
      }

      .cls-5 {
        fill: #02a8ff;
      }

      .cls-6 {
        fill: #008560;
      }

      .cls-7 {
        fill: #f84616;
      }

      .cls-8 {
        fill: #8b41d3;
      }

      .cls-9 {
        fill: #d05af1;
      }

      .cls-10 {
        fill: #c83316;
      }

      .cls-11 {
        fill: #05b178;
      }

      .cls-12 {
        fill: #370d32;
        mix-blend-mode: multiply;
        opacity: .2;
      }

      .cls-13 {
        font-size: 80px;
      }

      .cls-14 {
        font-size: 50px;
      }

      .cls-15 {
        isolation: isolate;
      }

      .cls-2 {
        font-family: SourceHanSansSC-Bold-GBpc-EUC-H, 'Source Han Sans SC';
        font-weight: 700;
      }
    </style>
  </defs>
  <g class="cls-15">
    <g id="OBJECTS">
      <g>
        <g>
          <path class="cls-10" d="m184.71,208.15c-1.7,10.9-8.46,19.76-17.51,24.56-7.15-7.34-10.88-17.83-9.17-28.73,1.7-10.9,8.46-19.76,17.51-24.56,7.15,7.34,10.88,17.83,9.17,28.73Z"/>
          <path class="cls-12" d="m184.71,208.15c.58-3.69.52-7.33-.07-10.82-3.13,1.66-6.05,3.83-8.63,6.54-7.61,7.99-10.51,18.75-8.81,28.85,9.05-4.8,15.8-13.66,17.51-24.56Z"/>
          <path class="cls-7" d="m201.99,229.82c-10.91,6.64-23.78,7.3-34.79,2.89,1.14-11.8,7.62-22.94,18.53-29.59,10.91-6.64,23.78-7.3,34.79-2.89-1.14,11.8-7.62,22.94-18.53,29.59Z"/>
          <path class="cls-7" d="m198.5,194.51c-2.87,1.75-6.25,1.92-9.15.76.3-3.1,2-6.03,4.87-7.78,2.87-1.75,6.25-1.92,9.15-.76-.3,3.1-2,6.03-4.87,7.78Z"/>
          <path class="cls-7" d="m206.5,241.81c-3.35.28-6.45-1.08-8.52-3.41,1.66-2.64,4.49-4.5,7.84-4.78s6.45,1.08,8.52,3.41c-1.66,2.64-4.49,4.5-7.84,4.78Z"/>
          <path class="cls-7" d="m195.75,177.12c-.95,4.32-3.88,7.69-7.62,9.38-2.67-3.11-3.9-7.4-2.95-11.72.95-4.32,3.88-7.69,7.62-9.38,2.67,3.11,3.9,7.4,2.95,11.72Z"/>
        </g>
        <g>
          <path class="cls-1" d="m173.99,265.76c-10.89,1.75-21.41-1.94-28.77-9.06,4.77-9.07,13.6-15.86,24.49-17.61,10.89-1.75,21.41,1.94,28.77,9.06-4.77,9.07-13.6,15.86-24.49,17.6Z"/>
          <path class="cls-12" d="m173.99,265.76c3.69-.59,7.13-1.77,10.27-3.41-2.54-2.46-5.51-4.57-8.88-6.19-9.95-4.76-21.08-4.21-30.16.54,7.36,7.12,17.88,10.81,28.77,9.06Z"/>
          <path class="cls-3" d="m158.72,288.89c-9.69-8.32-14.29-20.36-13.5-32.19,11.58-2.57,24.18.16,33.87,8.48,9.69,8.32,14.29,20.36,13.5,32.19-11.58,2.57-24.18-.16-33.87-8.48Z"/>
          <path class="cls-3" d="m191.22,274.66c-2.55-2.19-3.76-5.35-3.55-8.46,3.04-.67,6.36.04,8.9,2.23,2.55,2.19,3.76,5.35,3.55,8.46-3.04.67-6.36-.04-8.9-2.23Z"/>
          <path class="cls-3" d="m148.71,296.89c-1.3-3.1-.96-6.47.61-9.16,3.02.76,5.67,2.88,6.96,5.98,1.3,3.1.96,6.47-.61,9.16-3.02-.76-5.67-2.88-6.96-5.98Z"/>
          <path class="cls-3" d="m206.92,266.68c-4.4.43-8.51-1.31-11.27-4.34,2.13-3.51,5.83-6,10.23-6.42s8.51,1.31,11.27,4.34c-2.13,3.51-5.83,6-10.23,6.42Z"/>
        </g>
        <g>
          <path class="cls-6" d="m115.89,273.37c-5.03-9.82-4.77-20.96-.27-30.16,10.1,1.73,19.28,8.03,24.31,17.85,5.03,9.82,4.77,20.96.27,30.16-10.1-1.73-19.28-8.03-24.31-17.85Z"/>
          <path class="cls-12" d="m115.89,273.37c1.7,3.33,3.89,6.24,6.42,8.71,1.56-3.18,2.64-6.66,3.14-10.36,1.45-10.94-2.51-21.35-9.83-28.52-4.5,9.21-4.76,20.34.27,30.16Z"/>
          <path class="cls-11" d="m89.17,266c4.92-11.79,14.95-19.88,26.45-22.79,6.02,10.22,7.32,23.04,2.4,34.83-4.92,11.78-14.95,19.88-26.45,22.79-6.02-10.22-7.32-23.04-2.4-34.83Z"/>
          <path class="cls-11" d="m112.75,292.51c1.29-3.1,3.93-5.23,6.95-5.99,1.58,2.69,1.92,6.06.63,9.16-1.29,3.1-3.93,5.23-6.95,5.99-1.58-2.69-1.92-6.06-.63-9.16Z"/>
          <path class="cls-11" d="m78.47,258.95c2.54-2.19,5.85-2.91,8.9-2.25.21,3.11-.99,6.28-3.53,8.47-2.54,2.19-5.85,2.92-8.9,2.25-.21-3.11.99-6.28,3.53-8.47Z"/>
          <path class="cls-11" d="m125.19,304.97c-1.76-4.05-1.38-8.5.65-12.07,3.99.95,7.51,3.69,9.27,7.75,1.76,4.05,1.38,8.5-.65,12.07-3.99-.95-7.51-3.69-9.27-7.75Z"/>
        </g>
        <g>
          <path class="cls-8" d="m90.7,220.47c7.79-7.82,18.46-11.01,28.6-9.58,1.47,10.14-1.68,20.82-9.47,28.64-7.79,7.82-18.46,11.01-28.6,9.58-1.47-10.14,1.68-20.82,9.47-28.64Z"/>
          <path class="cls-12" d="m90.7,220.47c-2.64,2.65-4.73,5.63-6.3,8.8,3.51.5,7.15.46,10.82-.22,10.85-2,19.52-8.99,24.08-18.16-10.14-1.43-20.82,1.76-28.6,9.58Z"/>
          <path class="cls-9" d="m89.45,192.78c12.73,1.04,23.53,8.08,29.85,18.11-7.86,8.88-19.65,14.08-32.38,13.05-12.73-1.04-23.53-8.08-29.85-18.11,7.86-8.88,19.65-14.08,32.38-13.05Z"/>
          <path class="cls-9" d="m71.52,223.39c3.35.27,6.19,2.12,7.85,4.76-2.07,2.33-5.17,3.7-8.51,3.43-3.35-.27-6.19-2.12-7.85-4.76,2.07-2.33,5.17-3.7,8.51-3.43Z"/>
          <path class="cls-9" d="m92.85,180.42c2.87,1.74,4.58,4.67,4.89,7.77-2.89,1.16-6.28,1-9.15-.74-2.87-1.74-4.58-4.67-4.89-7.77,2.89-1.16,6.28-1,9.15.74Z"/>
          <path class="cls-9" d="m63.52,239.08c3.31-2.93,7.65-3.94,11.67-3.11.33,4.09-1.19,8.28-4.5,11.21-3.31,2.93-7.66,3.94-11.67,3.11-.33-4.09,1.19-8.28,4.5-11.21Z"/>
        </g>
        <g>
          <path class="cls-4" d="m133.23,180.16c9.84,4.99,16.18,14.15,17.95,24.24-9.19,4.53-20.32,4.84-30.16-.15-9.84-4.99-16.18-14.15-17.95-24.24,9.19-4.53,20.32-4.84,30.16.15Z"/>
          <path class="cls-12" d="m133.23,180.16c-3.33-1.69-6.81-2.76-10.32-3.28.61,3.49,1.77,6.94,3.55,10.22,5.25,9.7,14.58,15.79,24.71,17.29-1.77-10.09-8.11-19.25-17.95-24.24Z"/>
          <path class="cls-5" d="m159.18,170.42c2.95,12.43-.41,24.87-8,33.98-10.87-4.73-19.47-14.34-22.41-26.77-2.95-12.43.41-24.87,8-33.98,10.87,4.73,19.47,14.34,22.41,26.77Z"/>
          <path class="cls-5" d="m124.52,162.82c.77,3.27-.11,6.54-2.1,8.93-2.86-1.24-5.12-3.77-5.89-7.04-.78-3.27.11-6.54,2.1-8.93,2.86,1.24,5.12,3.77,5.89,7.04Z"/>
          <path class="cls-5" d="m171.98,169.83c-.77,3.27-3.02,5.8-5.88,7.05-2-2.39-2.89-5.66-2.12-8.93.77-3.27,3.02-5.8,5.88-7.05,2,2.39,2.89,5.66,2.12,8.93Z"/>
          <path class="cls-5" d="m107.13,160.06c3.81,2.24,6.11,6.06,6.57,10.14-3.79,1.58-8.25,1.42-12.06-.82s-6.11-6.06-6.57-10.14c3.79-1.58,8.25-1.42,12.06.82Z"/>
        </g>
      </g>
      <text id="_南科大_活动中心" data-name="南科大 活动中心" class="cls-2" transform="translate(252.97 195.35)"><tspan class="cls-14"><tspan x="0" y="0">南科大</tspan></tspan><tspan class="cls-13"><tspan x="0" y="96">活动中心</tspan></tspan></text>
    </g>
  </g>
</svg>